<svg width="1200" height="800" viewBox="0 0 1200 800" fill="none" xmlns="http://www.w3.org/2000/svg">
  <defs>
    <linearGradient id="g1" x1="240" y1="120" x2="960" y2="680" gradientUnits="userSpaceOnUse">
      <stop stop-color="#0D84EB" stop-opacity="0.9"/>
      <stop offset="1" stop-color="#072648" stop-opacity="0.95"/>
    </linearGradient>
    <linearGradient id="g2" x1="420" y1="140" x2="780" y2="640" gradientUnits="userSpaceOnUse">
      <stop stop-color="#FFFFFF" stop-opacity="0.22"/>
      <stop offset="1" stop-color="#FFFFFF" stop-opacity="0.05"/>
    </linearGradient>
    <filter id="blur" x="-20%" y="-20%" width="140%" height="140%">
      <feGaussianBlur stdDeviation="24"/>
    </filter>
  </defs>

  <rect width="1200" height="800" rx="48" fill="url(#g1)"/>
  <circle cx="250" cy="200" r="180" fill="#37A1F9" fill-opacity="0.35" filter="url(#blur)"/>
  <circle cx="980" cy="620" r="220" fill="#7CC0FD" fill-opacity="0.22" filter="url(#blur)"/>

  <g opacity="0.9">
    <rect x="260" y="170" width="680" height="460" rx="44" fill="url(#g2)" stroke="#FFFFFF" stroke-opacity="0.14"/>

    <path d="M600 250C640 282 699 294 740 300V386C740 468 684 539 600 566C516 539 460 468 460 386V300C501 294 560 282 600 250Z"
      fill="#FFFFFF" fill-opacity="0.14" stroke="#FFFFFF" stroke-opacity="0.22" stroke-width="3"/>
    <path d="M600 312C627 333 667 341 694 345V387C694 434 661 477 600 496C539 477 506 434 506 387V345C533 341 573 333 600 312Z"
      fill="#0D84EB" fill-opacity="0.35" stroke="#FFFFFF" stroke-opacity="0.18" stroke-width="2"/>

    <rect x="340" y="520" width="520" height="20" rx="10" fill="#FFFFFF" fill-opacity="0.25"/>
    <rect x="340" y="560" width="420" height="16" rx="8" fill="#FFFFFF" fill-opacity="0.18"/>
    <rect x="340" y="595" width="360" height="16" rx="8" fill="#FFFFFF" fill-opacity="0.14"/>

    <g transform="translate(535 360)">
      <rect x="0" y="32" width="130" height="110" rx="22" fill="#FFFFFF" fill-opacity="0.14" stroke="#FFFFFF" stroke-opacity="0.22" stroke-width="2"/>
      <path d="M36 32V18C36 0 50 -14 68 -14H62C80 -14 94 0 94 18V32" stroke="#FFFFFF" stroke-opacity="0.28" stroke-width="10" stroke-linecap="round"/>
      <circle cx="65" cy="88" r="10" fill="#FFFFFF" fill-opacity="0.5"/>
      <rect x="60" y="96" width="10" height="26" rx="5" fill="#FFFFFF" fill-opacity="0.45"/>
    </g>
  </g>
</svg>

