<svg width="1200" height="800" viewBox="0 0 1200 800" fill="none" xmlns="http://www.w3.org/2000/svg">
  <defs>
    <linearGradient id="bg" x1="220" y1="120" x2="980" y2="700" gradientUnits="userSpaceOnUse">
      <stop stop-color="#072648"/>
      <stop offset="1" stop-color="#0168C4"/>
    </linearGradient>
    <linearGradient id="glass" x1="320" y1="150" x2="880" y2="650" gradientUnits="userSpaceOnUse">
      <stop stop-color="#FFFFFF" stop-opacity="0.20"/>
      <stop offset="1" stop-color="#FFFFFF" stop-opacity="0.05"/>
    </linearGradient>
    <filter id="blur" x="-20%" y="-20%" width="140%" height="140%">
      <feGaussianBlur stdDeviation="26"/>
    </filter>
  </defs>

  <rect width="1200" height="800" rx="48" fill="url(#bg)"/>
  <circle cx="300" cy="600" r="240" fill="#7CC0FD" fill-opacity="0.20" filter="url(#blur)"/>
  <circle cx="980" cy="220" r="180" fill="#37A1F9" fill-opacity="0.20" filter="url(#blur)"/>

  <g opacity="0.95">
    <rect x="270" y="150" width="660" height="520" rx="48" fill="url(#glass)" stroke="#FFFFFF" stroke-opacity="0.14"/>

    <g transform="translate(360 290)">
      <rect x="0" y="50" width="480" height="210" rx="36" fill="#FFFFFF" fill-opacity="0.10" stroke="#FFFFFF" stroke-opacity="0.18" stroke-width="2"/>
      <path d="M70 50H300V260H70C48 260 30 242 30 220V90C30 68 48 50 70 50Z" fill="#0D84EB" fill-opacity="0.25"/>
      <path d="M300 90H408C418 90 428 95 434 103L476 160C482 168 486 177 486 186V260H300V90Z" fill="#FFFFFF" fill-opacity="0.10"/>
      <rect x="80" y="80" width="200" height="18" rx="9" fill="#FFFFFF" fill-opacity="0.22"/>
      <rect x="80" y="112" width="150" height="14" rx="7" fill="#FFFFFF" fill-opacity="0.16"/>

      <circle cx="130" cy="260" r="34" fill="#072648" fill-opacity="0.35" stroke="#FFFFFF" stroke-opacity="0.18" stroke-width="2"/>
      <circle cx="130" cy="260" r="14" fill="#FFFFFF" fill-opacity="0.35"/>
      <circle cx="390" cy="260" r="34" fill="#072648" fill-opacity="0.35" stroke="#FFFFFF" stroke-opacity="0.18" stroke-width="2"/>
      <circle cx="390" cy="260" r="14" fill="#FFFFFF" fill-opacity="0.35"/>
    </g>

    <g transform="translate(320 190)">
      <rect x="0" y="0" width="240" height="46" rx="23" fill="#FFFFFF" fill-opacity="0.08" stroke="#FFFFFF" stroke-opacity="0.14"/>
      <circle cx="24" cy="23" r="7" fill="#7CC0FD" fill-opacity="0.9"/>
      <rect x="44" y="16" width="176" height="14" rx="7" fill="#FFFFFF" fill-opacity="0.30"/>
    </g>
  </g>
</svg>

