<svg width="1200" height="800" viewBox="0 0 1200 800" fill="none" xmlns="http://www.w3.org/2000/svg">
  <defs>
    <linearGradient id="bg" x1="200" y1="120" x2="980" y2="700" gradientUnits="userSpaceOnUse">
      <stop stop-color="#072648"/>
      <stop offset="1" stop-color="#0B3C6D"/>
    </linearGradient>
    <linearGradient id="glass" x1="320" y1="150" x2="860" y2="650" gradientUnits="userSpaceOnUse">
      <stop stop-color="#FFFFFF" stop-opacity="0.22"/>
      <stop offset="1" stop-color="#FFFFFF" stop-opacity="0.05"/>
    </linearGradient>
    <filter id="blur" x="-20%" y="-20%" width="140%" height="140%">
      <feGaussianBlur stdDeviation="26"/>
    </filter>
  </defs>

  <rect width="1200" height="800" rx="48" fill="url(#bg)"/>
  <circle cx="310" cy="610" r="210" fill="#0D84EB" fill-opacity="0.22" filter="url(#blur)"/>
  <circle cx="965" cy="210" r="190" fill="#37A1F9" fill-opacity="0.22" filter="url(#blur)"/>

  <g>
    <rect x="290" y="150" width="620" height="520" rx="48" fill="url(#glass)" stroke="#FFFFFF" stroke-opacity="0.14"/>
    <rect x="340" y="220" width="420" height="26" rx="13" fill="#FFFFFF" fill-opacity="0.25"/>
    <rect x="340" y="270" width="520" height="16" rx="8" fill="#FFFFFF" fill-opacity="0.16"/>
    <rect x="340" y="305" width="470" height="16" rx="8" fill="#FFFFFF" fill-opacity="0.14"/>
    <rect x="340" y="340" width="490" height="16" rx="8" fill="#FFFFFF" fill-opacity="0.12"/>
    <rect x="340" y="390" width="520" height="16" rx="8" fill="#FFFFFF" fill-opacity="0.14"/>
    <rect x="340" y="425" width="455" height="16" rx="8" fill="#FFFFFF" fill-opacity="0.12"/>
    <rect x="340" y="460" width="500" height="16" rx="8" fill="#FFFFFF" fill-opacity="0.10"/>

    <g transform="translate(760 475)">
      <rect x="0" y="0" width="120" height="120" rx="28" fill="#0D84EB" fill-opacity="0.25" stroke="#FFFFFF" stroke-opacity="0.16" stroke-width="2"/>
      <path d="M30 62L50 82L90 38" stroke="#FFFFFF" stroke-opacity="0.9" stroke-width="10" stroke-linecap="round" stroke-linejoin="round"/>
    </g>

    <g transform="translate(320 170)" opacity="0.95">
      <rect x="0" y="0" width="180" height="42" rx="21" fill="#0D84EB" fill-opacity="0.25" stroke="#FFFFFF" stroke-opacity="0.12"/>
      <circle cx="26" cy="21" r="7" fill="#7CC0FD" fill-opacity="0.9"/>
      <rect x="46" y="14" width="118" height="14" rx="7" fill="#FFFFFF" fill-opacity="0.35"/>
    </g>
  </g>
</svg>

